<?xml version="1.0" encoding="UTF-8" standalone="no"?>
<!-- Created with Inkscape (http://www.inkscape.org/) -->

<svg
   width="17.89777mm"
   height="6.7090611mm"
   viewBox="0 0 17.89777 6.7090611"
   version="1.1"
   id="svg1"
   xml:space="preserve"
   inkscape:version="1.3.2 (1:1.3.2+202311252150+091e20ef0f)"
   sodipodi:docname="gwiazdka2.svg"
   xmlns:inkscape="http://www.inkscape.org/namespaces/inkscape"
   xmlns:sodipodi="http://sodipodi.sourceforge.net/DTD/sodipodi-0.dtd"
   xmlns:xlink="http://www.w3.org/1999/xlink"
   xmlns="http://www.w3.org/2000/svg"
   xmlns:svg="http://www.w3.org/2000/svg"><sodipodi:namedview
     id="namedview1"
     pagecolor="#ffffff"
     bordercolor="#000000"
     borderopacity="0.25"
     inkscape:showpageshadow="2"
     inkscape:pageopacity="0.0"
     inkscape:pagecheckerboard="0"
     inkscape:deskcolor="#d1d1d1"
     inkscape:document-units="mm"
     inkscape:zoom="14.385829"
     inkscape:cx="51.26573"
     inkscape:cy="19.880676"
     inkscape:window-width="1850"
     inkscape:window-height="1016"
     inkscape:window-x="0"
     inkscape:window-y="0"
     inkscape:window-maximized="1"
     inkscape:current-layer="layer1" /><defs
     id="defs1"><inkscape:path-effect
       effect="bspline"
       id="path-effect10"
       is_visible="true"
       lpeversion="1.3"
       weight="33.333333"
       steps="2"
       helper_size="0"
       apply_no_weight="true"
       apply_with_weight="true"
       only_selected="false"
       uniform="false" /><inkscape:path-effect
       effect="spiro"
       id="path-effect9"
       is_visible="true"
       lpeversion="1" /><inkscape:path-effect
       effect="spiro"
       id="path-effect8"
       is_visible="true"
       lpeversion="1" /><radialGradient
       xlink:href="#linearGradient29"
       id="radialGradient30"
       cx="38.104454"
       cy="62.091663"
       fx="38.104454"
       fy="62.091663"
       r="2.6440167"
       gradientTransform="matrix(1,0,0,1.0966317,5.0213027,16.89605)"
       gradientUnits="userSpaceOnUse" /><linearGradient
       id="linearGradient29"><stop
         style="stop-color:#3a00ff;stop-opacity:1;"
         offset="0"
         id="stop29" /><stop
         style="stop-color:#71be8b;stop-opacity:0;"
         offset="1"
         id="stop30" /></linearGradient></defs><g
     inkscape:label="Layer 1"
     inkscape:groupmode="layer"
     id="layer1"
     transform="translate(-0.33912196,-0.11129894)"><path
       style="opacity:0.861097;fill:none;stroke:#000000;stroke-width:0.287401;stroke-dasharray:none"
       d="m 15.840289,2.7056227 c 0.168626,-0.09858 0.223924,0.1813043 0.293763,0.3446713 0.06984,0.163361 -0.01656,0.5772755 0.744316,1.3962954 0.325065,0.4586539 0.718982,0.7021479 0.376923,1.4831857 -0.09239,0.2109461 -0.620204,0.4498757 -0.652178,0.080848"
       id="path5"
       inkscape:export-filename="gwiadka2.png"
       inkscape:export-xdpi="96"
       inkscape:export-ydpi="96"
       sodipodi:nodetypes="cccsc" /><path
       style="opacity:0.861097;fill:#252525;fill-opacity:1;stroke:#000000;stroke-width:0.146518;stroke-dasharray:none"
       d="m 9.1101135,1.7930657 c -0.998793,1.433614 -1.248288,1.870662 -0.03776,1.873698 1.2105355,0.003 2.1868585,0.781787 2.4459695,-0.235831 0.259112,-1.017619 0.17534,-1.822739 -0.984217,-1.922332 -1.3216685,-0.113516 -1.4239995,0.284465 -1.4239995,0.284465 z"
       id="path2"
       sodipodi:nodetypes="ccssc" /><path
       style="opacity:0.861097;fill:#302828;fill-opacity:1;stroke:#000000;stroke-width:0.146518;stroke-dasharray:none"
       d="m 11.639324,2.3234237 c 0.189518,-0.237398 0.415965,-0.424768 0.608131,-0.393993 0.192165,0.03078 0.442697,0.224265 0.485138,0.407413 0.04244,0.183148 -0.02251,0.281843 -0.02251,0.281843 0,0 -0.323366,-0.481851 -0.536704,-0.43715 -0.175382,0.03675 -0.558786,0.419829 -0.558786,0.419829"
       id="path4"
       sodipodi:nodetypes="csscsc" /><path
       style="opacity:0.861097;fill:#000000;fill-opacity:0.862745;stroke:#000000;stroke-width:0.146518;stroke-dasharray:none"
       d="m 12.968138,1.8872467 c -0.474093,1.465801 -0.7662,1.918233 0.126722,2.21783 0.892921,0.299597 1.886856,0.721665 2.215198,-0.02814 0.328342,-0.749803 0.997577,-2.031594 0.431987,-2.161149 -0.565591,-0.129556 -2.405484,-0.281582 -2.773907,-0.028541 z"
       id="path3" /><path
       style="opacity:0.861097;fill:none;stroke:#000000;stroke-width:0.287401;stroke-dasharray:none"
       d="m 9.6343075,3.7371087 c 0.198534,0.418829 0.9064345,1.619293 0.9341165,1.738019 0.02768,0.118725 -0.161236,0.561896 -0.533961,0.559872"
       id="path6" /><path
       style="opacity:0.861097;fill:#dbe2e3;fill-opacity:1;stroke:#ffffff;stroke-width:0.287402;stroke-dasharray:none;stroke-opacity:1"
       d="m 9.1911535,2.0593437 c 0.20865,-0.04895 0.433734,-0.05402 0.646952,-0.03012 0.115994,0.01302 0.2339815,0.05263 0.3508535,0.05926 0.138538,0.0079 0.275816,0.02032 0.413103,0.0435 0.04615,0.0078 0.109096,0.009 0.153295,0.02589 0.04319,0.01649 0.07948,0.02656 0.125589,0.03435"
       id="path7" /><path
       style="opacity:0.861097;fill:#dbe2e3;fill-opacity:1;stroke:#b5b5b5;stroke-width:0.408001;stroke-dasharray:none;stroke-opacity:1"
       d="m 16.428674,21.568719 c 0.524323,-0.03522 1.053805,0.0074 1.565758,0.125942 0.21032,0.04871 0.417687,0.110168 0.620585,0.18392"
       id="path8"
       inkscape:path-effect="#path-effect8"
       inkscape:original-d="m 16.428674,21.568719 c 0.530679,-0.05825 1.042725,0.08522 1.565758,0.125942 0.274815,0.02139 0.389622,-0.04704 0.620585,0.18392"
       transform="matrix(0.70441497,0,0,0.70441497,-2.0579834,-12.680571)" /><path
       style="opacity:0.861097;fill:#dbe2e3;fill-opacity:1;stroke:#ffffff;stroke-width:0.408001;stroke-dasharray:none;stroke-opacity:1"
       d="m 23.161347,20.444656 c 0.308209,-0.03616 0.62154,-0.02837 0.927571,0.02306 0.09198,0.01546 0.183269,0.03482 0.275305,0.04993 0.217071,0.03563 0.437407,0.04742 0.655069,0.07924 0.123783,0.0181 0.246619,0.04266 0.367839,0.07357"
       id="path9"
       inkscape:path-effect="#path-effect9"
       inkscape:original-d="m 23.161347,20.444656 c 0.305579,-0.0232 0.622412,-0.01116 0.927571,0.02306 0.09268,0.01039 0.182477,0.04091 0.275305,0.04993 0.245573,0.02386 0.414837,-8.47e-4 0.655069,0.07924 0.06535,0.02178 0.332572,0.0383 0.367839,0.07357"
       transform="matrix(0.70441497,0,0,0.70441497,-2.7125424,-12.213058)" /><path
       style="opacity:0.861097;fill:#dbe2e3;fill-opacity:1;stroke:#9c9c9c;stroke-width:0.408001;stroke-dasharray:none;stroke-opacity:1"
       d="m 22.476822,21.113591 c 0.261989,-0.0077 0.523978,-0.01537 0.757733,-0.0321 0.233755,-0.01673 0.439277,-0.04249 0.643611,-0.05538 0.204334,-0.01288 0.407484,-0.01288 0.610634,-0.01288"
       id="path10"
       inkscape:path-effect="#path-effect10"
       inkscape:original-d="m 22.476822,21.113591 c 0.261989,-0.0077 0.523978,-0.01537 0.785968,-0.02306 0.20552,-0.02577 0.411041,-0.05154 0.616561,-0.0773 0.203149,0 0.406299,0 0.609449,0"
       transform="matrix(0.69823231,0.09312405,-0.09312405,0.69823231,0.1377596,-14.178171)" /><g
       id="layer1-6"
       transform="translate(-23.167417,-62.355964)"><path
         style="opacity:0.861097;fill:#800080;stroke:#ff7a68;stroke-width:0.708001;stroke-opacity:1"
         id="path1-2"
         d="m 29.938002,63.685613 -1.727654,-0.719806 -1.572392,1.015132 0.150701,-1.865529 -1.451344,-1.18174 1.820793,-0.433155 0.675412,-1.745488 0.974611,1.597824 1.868771,0.10297 -1.21845,1.420665 z"
         transform="translate(-1.0510361,4.5089344)" /></g></g></svg>
